<svg width="48" height="47" viewBox="0 0 48 47" fill="none" xmlns="http://www.w3.org/2000/svg">
<path d="M47.1094 23.397C47.1095 19.5525 46.1505 15.7687 44.3192 12.3884C42.4879 9.00808 39.8423 6.13804 36.6219 4.03827C33.4015 1.93849 29.7081 0.675313 25.8763 0.363169C22.0445 0.0510243 18.1954 0.699773 14.6776 2.25065C11.1598 3.80152 8.08453 6.20552 5.73031 9.24487C3.37608 12.2842 1.81731 15.8629 1.1952 19.6567C0.57309 23.4505 0.907294 27.3396 2.16754 30.9717C3.42779 34.6037 5.57425 37.864 8.4125 40.4571L8.68438 40.6837C12.9054 44.4325 18.3547 46.503 24 46.503C29.6454 46.503 35.0947 44.4325 39.3156 40.6837L39.5875 40.4571C41.9596 38.2936 43.8539 35.6587 45.1492 32.721C46.4444 29.7833 47.1121 26.6075 47.1094 23.397ZM3.60938 23.397C3.60483 20.0681 4.41533 16.7888 5.97011 13.8453C7.5249 10.9019 9.77666 8.38387 12.5288 6.51116C15.2809 4.63844 18.4496 3.468 21.7583 3.10204C25.067 2.73608 28.4149 3.18573 31.5098 4.41173C34.6046 5.63773 37.3523 7.60279 39.5127 10.1353C41.6732 12.6678 43.1808 15.6907 43.9038 18.9401C44.6268 22.1895 44.5434 25.5665 43.6606 28.7761C42.7779 31.9858 41.1228 34.9305 38.8398 37.3532C36.6987 34.0409 33.5073 31.5437 29.7773 30.2618C31.6393 29.0216 33.0528 27.2152 33.8088 25.1097C34.5648 23.0041 34.6232 20.7112 33.9753 18.5698C33.3275 16.4285 32.0078 14.5525 30.2114 13.2192C28.415 11.8858 26.2372 11.166 24 11.166C21.7628 11.166 19.585 11.8858 17.7886 13.2192C15.9922 14.5525 14.6725 16.4285 14.0247 18.5698C13.3768 20.7112 13.4352 23.0041 14.1912 25.1097C14.9472 27.2152 16.3607 29.0216 18.2227 30.2618C14.4927 31.5437 11.3013 34.0409 9.16016 37.3532C5.59168 33.5831 3.605 28.5881 3.60938 23.397ZM16.2969 21.5845C16.2969 20.0609 16.7487 18.5716 17.5951 17.3048C18.4415 16.0381 19.6446 15.0507 21.0521 14.4677C22.4597 13.8847 24.0085 13.7321 25.5028 14.0293C26.9971 14.3266 28.3696 15.0602 29.4469 16.1375C30.5242 17.2148 31.2579 18.5874 31.5551 20.0816C31.8523 21.5759 31.6998 23.1247 31.1168 24.5323C30.5337 25.9399 29.5464 27.1429 28.2796 27.9894C27.0129 28.8358 25.5235 29.2876 24 29.2876C21.9588 29.2816 20.003 28.4681 18.5597 27.0248C17.1164 25.5815 16.3029 23.6256 16.2969 21.5845ZM11.1766 39.2563C12.5092 37.047 14.3901 35.2195 16.6368 33.9509C18.8835 32.6824 21.4199 32.0158 24 32.0158C26.5801 32.0158 29.1165 32.6824 31.3632 33.9509C33.6099 35.2195 35.4908 37.047 36.8234 39.2563C33.1925 42.1879 28.6667 43.7869 24 43.7869C19.3333 43.7869 14.8075 42.1879 11.1766 39.2563Z" fill="black"/>
</svg>
