<svg width="50" height="52" viewBox="0 0 50 52" fill="none" xmlns="http://www.w3.org/2000/svg">
<path d="M34.1656 29.922C35.3273 29.0422 36.2686 27.9045 36.915 26.5985C37.5615 25.2925 37.8955 23.8542 37.8906 22.397C37.8906 19.8774 36.8897 17.4611 35.1081 15.6795C33.3265 13.8979 30.9102 12.897 28.3906 12.897C25.8711 12.897 23.4547 13.8979 21.6731 15.6795C19.8915 17.4611 18.8906 19.8774 18.8906 22.397C18.8858 23.8542 19.2198 25.2925 19.8662 26.5985C20.5127 27.9045 21.4539 29.0422 22.6156 29.922C19.6607 31.0362 17.0849 32.9702 15.1906 35.497C14.9519 35.8152 14.8494 36.2153 14.9057 36.6091C14.962 37.0029 15.1724 37.3583 15.4906 37.597C15.8089 37.8357 16.2089 37.9382 16.6028 37.8819C16.9966 37.8256 17.3519 37.6152 17.5906 37.297C18.8481 35.6203 20.4787 34.2595 22.3532 33.3222C24.2278 32.3849 26.2948 31.897 28.3906 31.897C30.4864 31.897 32.5535 32.3849 34.428 33.3222C36.3026 34.2595 37.9331 35.6203 39.1906 37.297C39.3088 37.4546 39.4569 37.5873 39.6264 37.6877C39.7959 37.788 39.9835 37.854 40.1785 37.8819C40.3735 37.9098 40.5721 37.8989 40.7629 37.85C40.9537 37.8012 41.133 37.7152 41.2906 37.597C41.4482 37.4788 41.581 37.3307 41.6813 37.1612C41.7817 36.9917 41.8477 36.8041 41.8755 36.6091C41.9034 36.4141 41.8926 36.2155 41.8437 36.0247C41.7948 35.8339 41.7088 35.6546 41.5906 35.497C39.6963 32.9702 37.1205 31.0362 34.1656 29.922ZM21.8906 22.397C21.8906 21.1114 22.2718 19.8547 22.9861 18.7858C23.7003 17.7168 24.7155 16.8837 25.9032 16.3918C27.0909 15.8998 28.3978 15.7711 29.6587 16.0219C30.9196 16.2727 32.0778 16.8917 32.9868 17.8008C33.8959 18.7098 34.5149 19.868 34.7657 21.1289C35.0165 22.3898 34.8878 23.6967 34.3958 24.8844C33.9039 26.0721 33.0708 27.0873 32.0018 27.8015C30.9329 28.5158 29.6762 28.897 28.3906 28.897C26.6687 28.8904 25.0193 28.2035 23.8017 26.9859C22.5841 25.7683 21.8972 24.1189 21.8906 22.397ZM46.3906 0.896973H10.3906C9.46237 0.896973 8.57213 1.26572 7.91575 1.9221C7.25937 2.57848 6.89062 3.46871 6.89062 4.39697V9.89697H2.39062C1.9928 9.89697 1.61127 10.055 1.32996 10.3363C1.04866 10.6176 0.890625 10.9991 0.890625 11.397C0.890625 11.7948 1.04866 12.1763 1.32996 12.4576C1.61127 12.7389 1.9928 12.897 2.39062 12.897H6.89062V19.897H2.39062C1.9928 19.897 1.61127 20.055 1.32996 20.3363C1.04866 20.6176 0.890625 20.9991 0.890625 21.397C0.890625 21.7948 1.04866 22.1763 1.32996 22.4576C1.61127 22.7389 1.9928 22.897 2.39062 22.897H6.89062V29.897H2.39062C1.9928 29.897 1.61127 30.055 1.32996 30.3363C1.04866 30.6176 0.890625 30.9991 0.890625 31.397C0.890625 31.7948 1.04866 32.1763 1.32996 32.4576C1.61127 32.7389 1.9928 32.897 2.39062 32.897H6.89062V39.897H2.39062C1.9928 39.897 1.61127 40.055 1.32997 40.3363C1.04866 40.6176 0.890625 40.9991 0.890625 41.397C0.890625 41.7948 1.04866 42.1763 1.32997 42.4576C1.61127 42.7389 1.9928 42.897 2.39062 42.897H6.89062V48.397C6.89062 49.3252 7.25937 50.2155 7.91575 50.8718C8.57213 51.5282 9.46237 51.897 10.3906 51.897H46.3906C47.3189 51.897 48.2091 51.5282 48.8655 50.8718C49.5219 50.2155 49.8906 49.3252 49.8906 48.397V4.39697C49.8906 3.46871 49.5219 2.57848 48.8655 1.9221C48.2091 1.26572 47.3189 0.896973 46.3906 0.896973ZM46.8906 48.397C46.8906 48.5296 46.8379 48.6568 46.7442 48.7505C46.6504 48.8443 46.5232 48.897 46.3906 48.897H10.3906C10.258 48.897 10.1308 48.8443 10.0371 48.7505C9.9433 48.6568 9.89062 48.5296 9.89062 48.397V4.39697C9.89062 4.26436 9.9433 4.13719 10.0371 4.04342C10.1308 3.94965 10.258 3.89697 10.3906 3.89697H46.3906C46.5232 3.89697 46.6504 3.94965 46.7442 4.04342C46.8379 4.13719 46.8906 4.26436 46.8906 4.39697V48.397Z" fill="black"/>
</svg>
