<svg width="50" height="54" viewBox="0 0 50 54" fill="none" xmlns="http://www.w3.org/2000/svg">
<path d="M49.3149 13.5057H49.2906C48.9929 12.9939 48.557 12.5733 48.0313 12.2904L26.7188 0.447845C26.2084 0.16606 25.6329 0.0180664 25.0477 0.0180664C24.4624 0.0180664 23.887 0.16606 23.3766 0.447845L2.06408 12.2428C1.57988 12.513 1.17196 12.898 0.877359 13.3627L0.804702 13.458H0.780484C0.501143 13.9629 0.351487 14.5273 0.344546 15.1021V38.5967C0.343755 39.1877 0.502547 39.7682 0.804677 40.279C1.10681 40.7898 1.54143 41.2124 2.06408 41.5037L23.3766 53.2986C23.8316 53.5452 24.3357 53.6916 24.8539 53.7275H25.2656C25.7756 53.6882 26.271 53.542 26.7188 53.2986L48.0313 41.5037C48.5539 41.2124 48.9885 40.7898 49.2907 40.279C49.5928 39.7682 49.7516 39.1877 49.7508 38.5967V15.1498C49.7591 14.5731 49.6084 14.0049 49.3149 13.5057ZM24.8055 2.92597L25.0477 2.87831L25.2899 2.92597L45.343 14.0299L36.9391 18.724L16.4016 7.57245L24.8055 2.92597ZM25.2656 25.2529L4.77658 14.0299L13.4227 9.24042L33.9844 20.392L25.2656 25.2529ZM3.49298 39.0732C3.42012 39.0266 3.35995 38.9631 3.31774 38.8884C3.27553 38.8136 3.25254 38.7298 3.2508 38.6443V16.4603L23.8125 27.731L23.6188 50.201L3.49298 39.0732ZM46.6024 39.0732L26.525 50.1771L26.7188 27.731L35.4617 22.8463V32.735C35.4617 33.1141 35.6148 33.4778 35.8873 33.7459C36.1599 34.014 36.5295 34.1646 36.9149 34.1646C37.3002 34.1646 37.6699 34.014 37.9424 33.7459C38.2149 33.4778 38.368 33.1141 38.368 32.735V21.226L46.8445 16.4842V38.6443C46.8428 38.7298 46.8198 38.8136 46.7776 38.8884C46.7354 38.9631 46.6752 39.0266 46.6024 39.0732Z" fill="black"/>
</svg>
