<svg width="50" height="49" viewBox="0 0 50 49" fill="none" xmlns="http://www.w3.org/2000/svg">
<path d="M37.9719 48.147C37.2961 48.144 36.6354 47.9465 36.0688 47.5783L25.0219 40.6001H24.9781L14.7188 47.097C14.056 47.5151 13.2836 47.726 12.5003 47.7026C11.717 47.6793 10.9585 47.4227 10.3219 46.9658C9.66831 46.4852 9.17331 45.8202 8.90046 45.0562C8.62761 44.2922 8.58936 43.4641 8.79064 42.6783L11.7438 31.0626C11.7531 31.0322 11.7539 30.9999 11.7462 30.9691C11.7385 30.9382 11.7225 30.9101 11.7 30.8876L1.81252 22.6626C1.24907 22.1918 0.839579 21.563 0.636834 20.8573C0.434088 20.1516 0.447388 19.4013 0.675018 18.7033C0.894041 18.0142 1.31619 17.4073 1.88611 16.9623C2.45603 16.5173 3.14712 16.2549 3.86877 16.2095L16.775 15.3783C16.7941 15.376 16.8122 15.3687 16.8276 15.3572C16.8429 15.3457 16.855 15.3303 16.8625 15.3126L21.675 3.17201C21.9348 2.50123 22.3914 1.92471 22.9848 1.51816C23.5782 1.11161 24.2807 0.894043 25 0.894043C25.7193 0.894043 26.4218 1.11161 27.0153 1.51816C27.6087 1.92471 28.0652 2.50123 28.325 3.17201L33.1375 15.3126C33.1451 15.3303 33.1571 15.3457 33.1725 15.3572C33.1878 15.3687 33.206 15.376 33.225 15.3783L46.1313 16.2095C46.8529 16.2549 47.544 16.5173 48.1139 16.9623C48.6838 17.4073 49.106 18.0142 49.325 18.7033C49.5526 19.4013 49.5659 20.1516 49.3632 20.8573C49.1605 21.563 48.751 22.1918 48.1875 22.6626L38.3 30.8876C38.2775 30.9101 38.2616 30.9382 38.2539 30.9691C38.2462 30.9999 38.247 31.0322 38.2563 31.0626L41.4281 43.597C41.6164 44.3061 41.5856 45.0555 41.3396 45.7467C41.0935 46.4378 40.644 47.0383 40.05 47.4689C39.4421 47.9005 38.7174 48.137 37.9719 48.147ZM25 37.1001C25.6738 37.0954 26.3346 37.2853 26.9031 37.647L37.9281 44.6251H37.9719C38 44.6106 38.023 44.5877 38.0375 44.5595C38.0594 44.5376 38.0594 44.5158 38.0375 44.4283L34.8656 31.8939C34.6936 31.2256 34.7131 30.5225 34.922 29.8648C35.1309 29.2071 35.5207 28.6216 36.0469 28.1751L45.9563 19.9501C45.9781 19.9283 46.0219 19.8845 45.9781 19.7751C45.9344 19.6658 45.9344 19.6876 45.9125 19.6876L32.9844 18.8564C32.3078 18.8076 31.6589 18.568 31.1129 18.1653C30.567 17.7626 30.1464 17.2134 29.9 16.5814L25.0656 4.46264C25.0438 4.39701 25.0219 4.39701 25 4.39701C24.9781 4.39701 24.9563 4.39701 24.9344 4.46264L20.1 16.6033C19.8536 17.2353 19.433 17.7845 18.8871 18.1872C18.3412 18.5898 17.6923 18.8295 17.0156 18.8783L4.08752 19.7095C4.06564 19.7095 4.04377 19.7095 4.02189 19.797C4.00002 19.8845 4.02189 19.9501 4.04377 19.972L13.9531 28.197C14.4793 28.6435 14.8692 29.229 15.0781 29.8867C15.287 30.5443 15.3065 31.2475 15.1344 31.9158L12.1813 43.5533C12.1549 43.6569 12.1594 43.7661 12.1944 43.8672C12.2294 43.9683 12.2933 44.0569 12.3781 44.122C12.4392 44.1805 12.5193 44.215 12.6037 44.219C12.6882 44.223 12.7712 44.1963 12.8375 44.1439L23.0969 37.647C23.6654 37.2853 24.3262 37.0954 25 37.1001Z" fill="black"/>
</svg>
